<svg xmlns="http://www.w3.org/2000/svg" xmlns:xlink="http://www.w3.org/1999/xlink" contentStyleType="text/css" data-diagram-type="CLASS" height="703px" preserveAspectRatio="none" style="width:1993px;height:703px;background:#FFFFFF;" version="1.1" viewBox="0 0 1993 703" width="1993px" zoomAndPan="magnify"><defs/><g><!--class Peca--><g id="elem_Peca"><rect codeLine="1" fill="#F1F1F1" height="145.7813" id="Peca" rx="2.5" ry="2.5" style="stroke:#181818;stroke-width:0.5;" width="152.6357" x="75.78" y="550.35"/><ellipse cx="131.1819" cy="566.35" fill="#ADD1B2" rx="11" ry="11" style="stroke:#181818;stroke-width:1;"/><path d="M134.1506,571.9906 Q133.5725,572.2875 132.9319,572.4281 Q132.2912,572.5844 131.5881,572.5844 Q129.0881,572.5844 127.76,570.9438 Q126.4475,569.2875 126.4475,566.1625 Q126.4475,563.0375 127.76,561.3813 Q129.0881,559.725 131.5881,559.725 Q132.2912,559.725 132.9319,559.8813 Q133.5881,560.0375 134.1506,560.3344 L134.1506,563.0531 Q133.5256,562.475 132.9319,562.2094 Q132.3381,561.9281 131.7131,561.9281 Q130.3694,561.9281 129.6819,563.0063 Q128.9944,564.0688 128.9944,566.1625 Q128.9944,568.2563 129.6819,569.3344 Q130.3694,570.3969 131.7131,570.3969 Q132.3381,570.3969 132.9319,570.1313 Q133.5256,569.85 134.1506,569.2719 L134.1506,571.9906 Z " fill="#000000"/><text fill="#000000" font-family="sans-serif" font-size="14" lengthAdjust="spacing" textLength="33.332" x="151.6819" y="571.1967">Peca</text><line style="stroke:#181818;stroke-width:0.5;" x1="76.78" x2="227.4157" y1="582.35" y2="582.35"/><rect fill="#FFFFFF" fill-opacity="0.00000" height="6" style="stroke:#C82930;stroke-width:1;" width="6" x="83.78" y="592.9984"/><text fill="#000000" font-family="sans-serif" font-size="14" lengthAdjust="spacing" textLength="85.4014" x="95.78" y="599.3451">__valor1: int</text><rect fill="#FFFFFF" fill-opacity="0.00000" height="6" style="stroke:#C82930;stroke-width:1;" width="6" x="83.78" y="609.2953"/><text fill="#000000" font-family="sans-serif" font-size="14" lengthAdjust="spacing" textLength="85.4014" x="95.78" y="615.642">__valor2: int</text><line style="stroke:#181818;stroke-width:0.5;" x1="76.78" x2="227.4157" y1="622.9438" y2="622.9438"/><ellipse cx="86.78" cy="636.5922" fill="#84BE84" rx="3" ry="3" style="stroke:#038048;stroke-width:1;"/><text fill="#000000" font-family="sans-serif" font-size="14" lengthAdjust="spacing" textLength="126.6357" x="95.78" y="639.9389">obter_valor1(): int</text><ellipse cx="86.78" cy="652.8891" fill="#84BE84" rx="3" ry="3" style="stroke:#038048;stroke-width:1;"/><text fill="#000000" font-family="sans-serif" font-size="14" lengthAdjust="spacing" textLength="126.6357" x="95.78" y="656.2357">obter_valor2(): int</text><ellipse cx="86.78" cy="669.1859" fill="#84BE84" rx="3" ry="3" style="stroke:#038048;stroke-width:1;"/><text fill="#000000" font-family="sans-serif" font-size="14" lengthAdjust="spacing" textLength="117.7285" x="95.78" y="672.5326">obter_valor(): int</text><ellipse cx="86.78" cy="685.4828" fill="#84BE84" rx="3" ry="3" style="stroke:#038048;stroke-width:1;"/><text fill="#000000" font-family="sans-serif" font-size="14" lengthAdjust="spacing" textLength="85.1689" x="95.78" y="688.8295">__str__(): str</text></g><!--class Conjunto--><g id="elem_Conjunto"><rect codeLine="10" fill="#F1F1F1" height="113.1875" id="Conjunto" rx="2.5" ry="2.5" style="stroke:#181818;stroke-width:0.5;" width="200.2002" x="7" y="319.42"/><ellipse cx="71.3979" cy="335.42" fill="#ADD1B2" rx="11" ry="11" style="stroke:#181818;stroke-width:1;"/><path d="M74.3667,341.0606 Q73.7886,341.3575 73.1479,341.4981 Q72.5073,341.6544 71.8042,341.6544 Q69.3042,341.6544 67.9761,340.0138 Q66.6636,338.3575 66.6636,335.2325 Q66.6636,332.1075 67.9761,330.4513 Q69.3042,328.795 71.8042,328.795 Q72.5073,328.795 73.1479,328.9513 Q73.8042,329.1075 74.3667,329.4044 L74.3667,332.1231 Q73.7417,331.545 73.1479,331.2794 Q72.5542,330.9981 71.9292,330.9981 Q70.5854,330.9981 69.8979,332.0763 Q69.2104,333.1388 69.2104,335.2325 Q69.2104,337.3263 69.8979,338.4044 Q70.5854,339.4669 71.9292,339.4669 Q72.5542,339.4669 73.1479,339.2013 Q73.7417,338.92 74.3667,338.3419 L74.3667,341.0606 Z " fill="#000000"/><text fill="#000000" font-family="sans-serif" font-size="14" lengthAdjust="spacing" textLength="62.9043" x="91.8979" y="340.2667">Conjunto</text><line style="stroke:#181818;stroke-width:0.5;" x1="8" x2="206.2002" y1="351.42" y2="351.42"/><rect fill="#FFFFFF" fill-opacity="0.00000" height="6" style="stroke:#C82930;stroke-width:1;" width="6" x="15" y="362.0684"/><text fill="#000000" font-family="sans-serif" font-size="14" lengthAdjust="spacing" textLength="132.9658" x="27" y="368.4151">__pecas: List[Peca]</text><line style="stroke:#181818;stroke-width:0.5;" x1="8" x2="206.2002" y1="375.7169" y2="375.7169"/><ellipse cx="18" cy="389.3653" fill="#84BE84" rx="3" ry="3" style="stroke:#038048;stroke-width:1;"/><text fill="#000000" font-family="sans-serif" font-size="14" lengthAdjust="spacing" textLength="130.8672" x="27" y="392.712">embaralhar(): void</text><ellipse cx="18" cy="405.6622" fill="#84BE84" rx="3" ry="3" style="stroke:#038048;stroke-width:1;"/><text fill="#000000" font-family="sans-serif" font-size="14" lengthAdjust="spacing" textLength="112.3008" x="27" y="409.0089">comprar(): Peca</text><ellipse cx="18" cy="421.9591" fill="#84BE84" rx="3" ry="3" style="stroke:#038048;stroke-width:1;"/><text fill="#000000" font-family="sans-serif" font-size="14" lengthAdjust="spacing" textLength="174.2002" x="27" y="425.3057">obter_pecas(): List[Peca]</text></g><!--class Tabuleiro--><g id="elem_Tabuleiro"><rect codeLine="17" fill="#F1F1F1" height="194.6719" id="Tabuleiro" rx="2.5" ry="2.5" style="stroke:#181818;stroke-width:0.5;" width="310.0469" x="242.08" y="278.68"/><ellipse cx="360.0512" cy="294.68" fill="#ADD1B2" rx="11" ry="11" style="stroke:#181818;stroke-width:1;"/><path d="M363.0199,300.3206 Q362.4418,300.6175 361.8012,300.7581 Q361.1606,300.9144 360.4574,300.9144 Q357.9574,300.9144 356.6293,299.2738 Q355.3168,297.6175 355.3168,294.4925 Q355.3168,291.3675 356.6293,289.7113 Q357.9574,288.055 360.4574,288.055 Q361.1606,288.055 361.8012,288.2113 Q362.4574,288.3675 363.0199,288.6644 L363.0199,291.3831 Q362.3949,290.805 361.8012,290.5394 Q361.2074,290.2581 360.5824,290.2581 Q359.2387,290.2581 358.5512,291.3363 Q357.8637,292.3988 357.8637,294.4925 Q357.8637,296.5863 358.5512,297.6644 Q359.2387,298.7269 360.5824,298.7269 Q361.2074,298.7269 361.8012,298.4613 Q362.3949,298.18 363.0199,297.6019 L363.0199,300.3206 Z " fill="#000000"/><text fill="#000000" font-family="sans-serif" font-size="14" lengthAdjust="spacing" textLength="65.6045" x="380.5512" y="299.5267">Tabuleiro</text><line style="stroke:#181818;stroke-width:0.5;" x1="243.08" x2="551.1269" y1="310.68" y2="310.68"/><rect fill="#FFFFFF" fill-opacity="0.00000" height="6" style="stroke:#C82930;stroke-width:1;" width="6" x="250.08" y="321.3284"/><text fill="#000000" font-family="sans-serif" font-size="14" lengthAdjust="spacing" textLength="152.3662" x="262.08" y="327.6751">__pecas: deque[Peca]</text><rect fill="#FFFFFF" fill-opacity="0.00000" height="6" style="stroke:#C82930;stroke-width:1;" width="6" x="250.08" y="337.6253"/><text fill="#000000" font-family="sans-serif" font-size="14" lengthAdjust="spacing" textLength="172.8672" x="262.08" y="343.972">__extremo_esquerdo: int</text><rect fill="#FFFFFF" fill-opacity="0.00000" height="6" style="stroke:#C82930;stroke-width:1;" width="6" x="250.08" y="353.9222"/><text fill="#000000" font-family="sans-serif" font-size="14" lengthAdjust="spacing" textLength="152.4688" x="262.08" y="360.2689">__extremo_direito: int</text><line style="stroke:#181818;stroke-width:0.5;" x1="243.08" x2="551.1269" y1="367.5706" y2="367.5706"/><ellipse cx="253.08" cy="381.2191" fill="#84BE84" rx="3" ry="3" style="stroke:#038048;stroke-width:1;"/><text fill="#000000" font-family="sans-serif" font-size="14" lengthAdjust="spacing" textLength="214.1016" x="262.08" y="384.5657">obter_extremo_esquerdo(): int</text><ellipse cx="253.08" cy="397.5159" fill="#84BE84" rx="3" ry="3" style="stroke:#038048;stroke-width:1;"/><text fill="#000000" font-family="sans-serif" font-size="14" lengthAdjust="spacing" textLength="193.7031" x="262.08" y="400.8626">obter_extremo_direito(): int</text><ellipse cx="253.08" cy="413.8128" fill="#84BE84" rx="3" ry="3" style="stroke:#038048;stroke-width:1;"/><text fill="#000000" font-family="sans-serif" font-size="14" lengthAdjust="spacing" textLength="193.6006" x="262.08" y="417.1595">obter_pecas(): deque[Peca]</text><ellipse cx="253.08" cy="430.1097" fill="#84BE84" rx="3" ry="3" style="stroke:#038048;stroke-width:1;"/><text fill="#000000" font-family="sans-serif" font-size="14" lengthAdjust="spacing" textLength="123.6416" x="262.08" y="433.4564">esta_vazio(): bool</text><ellipse cx="253.08" cy="446.4066" fill="#84BE84" rx="3" ry="3" style="stroke:#038048;stroke-width:1;"/><text fill="#000000" font-family="sans-serif" font-size="14" lengthAdjust="spacing" textLength="284.0469" x="262.08" y="449.7532">colocar_peca(peca: Peca, lado: str): void</text><ellipse cx="253.08" cy="462.7034" fill="#84BE84" rx="3" ry="3" style="stroke:#038048;stroke-width:1;"/><text fill="#000000" font-family="sans-serif" font-size="14" lengthAdjust="spacing" textLength="85.1689" x="262.08" y="466.0501">__str__(): str</text></g><!--class Jogador--><g id="elem_Jogador"><rect codeLine="29" fill="#F1F1F1" height="194.6719" id="Jogador" rx="2.5" ry="2.5" style="stroke:#181818;stroke-width:0.5;" width="551.0547" x="587.57" y="278.68"/><ellipse cx="832.1633" cy="294.68" fill="#A9DCDF" rx="11" ry="11" style="stroke:#181818;stroke-width:1;"/><path d="M832.2726,290.0238 L831.1164,295.1019 L833.4445,295.1019 L832.2726,290.0238 Z M830.7883,287.7894 L833.7726,287.7894 L837.132,300.18 L834.6789,300.18 L833.9133,297.1175 L830.632,297.1175 L829.882,300.18 L827.4445,300.18 L830.7883,287.7894 Z " fill="#000000"/><text fill="#000000" font-family="sans-serif" font-size="14" font-style="italic" lengthAdjust="spacing" textLength="53.3682" x="852.6633" y="299.5267">Jogador</text><line style="stroke:#181818;stroke-width:0.5;" x1="588.57" x2="1137.6247" y1="310.68" y2="310.68"/><rect fill="#FFFFFF" fill-opacity="0.00000" height="6" style="stroke:#C82930;stroke-width:1;" width="6" x="595.57" y="321.3284"/><text fill="#000000" font-family="sans-serif" font-size="14" lengthAdjust="spacing" textLength="81.3955" x="607.57" y="327.6751">__nome: str</text><rect fill="#FFFFFF" fill-opacity="0.00000" height="6" style="stroke:#C82930;stroke-width:1;" width="6" x="595.57" y="337.6253"/><text fill="#000000" font-family="sans-serif" font-size="14" lengthAdjust="spacing" textLength="122.6777" x="607.57" y="343.972">__mao: List[Peca]</text><line style="stroke:#181818;stroke-width:0.5;" x1="588.57" x2="1137.6247" y1="351.2738" y2="351.2738"/><ellipse cx="598.57" cy="364.9222" fill="#84BE84" rx="3" ry="3" style="stroke:#038048;stroke-width:1;"/><text fill="#000000" font-family="sans-serif" font-size="14" lengthAdjust="spacing" textLength="163.9121" x="607.57" y="368.2689">obter_mao(): List[Peca]</text><ellipse cx="598.57" cy="381.2191" fill="#84BE84" rx="3" ry="3" style="stroke:#038048;stroke-width:1;"/><text fill="#000000" font-family="sans-serif" font-size="14" lengthAdjust="spacing" textLength="231.4854" x="607.57" y="384.5657">adicionar_peca(peca: Peca): void</text><ellipse cx="598.57" cy="397.5159" fill="#84BE84" rx="3" ry="3" style="stroke:#038048;stroke-width:1;"/><text fill="#000000" font-family="sans-serif" font-size="14" lengthAdjust="spacing" textLength="225.9961" x="607.57" y="400.8626">remover_peca(peca: Peca): void</text><ellipse cx="598.57" cy="413.8128" fill="#84BE84" rx="3" ry="3" style="stroke:#038048;stroke-width:1;"/><text fill="#000000" font-family="sans-serif" font-size="14" lengthAdjust="spacing" textLength="78.3193" x="607.57" y="417.1595">nome(): str</text><ellipse cx="598.57" cy="430.1097" fill="#84BE84" rx="3" ry="3" style="stroke:#038048;stroke-width:1;"/><text fill="#000000" font-family="sans-serif" font-size="14" font-style="italic" lengthAdjust="spacing" textLength="525.0547" x="607.57" y="433.4564">escolher_jogada(jogadas_possiveis: List[Tuple[Peca, str]]): Tuple[Peca, str]</text><ellipse cx="598.57" cy="446.4066" fill="#84BE84" rx="3" ry="3" style="stroke:#038048;stroke-width:1;"/><text fill="#000000" font-family="sans-serif" font-size="14" lengthAdjust="spacing" textLength="440.8975" x="607.57" y="449.7532">jogar(tabuleiro: Tabuleiro, estoque: Conjunto): Tuple[Peca, str]</text><ellipse cx="598.57" cy="462.7034" fill="#84BE84" rx="3" ry="3" style="stroke:#038048;stroke-width:1;"/><text fill="#000000" font-family="sans-serif" font-size="14" lengthAdjust="spacing" textLength="272.2617" x="607.57" y="466.0501">jogavel(peca: Peca, extremo: int): bool</text></g><!--class Humano--><g id="elem_Humano"><rect codeLine="41" fill="#F1F1F1" height="64.2969" id="Humano" rx="2.5" ry="2.5" style="stroke:#181818;stroke-width:0.5;" width="551.0547" x="263.57" y="591.09"/><ellipse cx="505.3195" cy="607.09" fill="#ADD1B2" rx="11" ry="11" style="stroke:#181818;stroke-width:1;"/><path d="M508.2883,612.7306 Q507.7101,613.0275 507.0695,613.1681 Q506.4289,613.3244 505.7258,613.3244 Q503.2258,613.3244 501.8976,611.6838 Q500.5851,610.0275 500.5851,606.9025 Q500.5851,603.7775 501.8976,602.1213 Q503.2258,600.465 505.7258,600.465 Q506.4289,600.465 507.0695,600.6213 Q507.7258,600.7775 508.2883,601.0744 L508.2883,603.7931 Q507.6633,603.215 507.0695,602.9494 Q506.4758,602.6681 505.8508,602.6681 Q504.507,602.6681 503.8195,603.7463 Q503.132,604.8088 503.132,606.9025 Q503.132,608.9963 503.8195,610.0744 Q504.507,611.1369 505.8508,611.1369 Q506.4758,611.1369 507.0695,610.8713 Q507.6633,610.59 508.2883,610.0119 L508.2883,612.7306 Z " fill="#000000"/><text fill="#000000" font-family="sans-serif" font-size="14" lengthAdjust="spacing" textLength="59.0557" x="525.8195" y="611.9367">Humano</text><line style="stroke:#181818;stroke-width:0.5;" x1="264.57" x2="813.6247" y1="623.09" y2="623.09"/><line style="stroke:#181818;stroke-width:0.5;" x1="264.57" x2="813.6247" y1="631.09" y2="631.09"/><ellipse cx="274.57" cy="644.7384" fill="#84BE84" rx="3" ry="3" style="stroke:#038048;stroke-width:1;"/><text fill="#000000" font-family="sans-serif" font-size="14" lengthAdjust="spacing" textLength="525.0547" x="283.57" y="648.0851">escolher_jogada(jogadas_possiveis: List[Tuple[Peca, str]]): Tuple[Peca, str]</text></g><!--class ComputadorAleatorio--><g id="elem_ComputadorAleatorio"><rect codeLine="45" fill="#F1F1F1" height="64.2969" id="ComputadorAleatorio" rx="2.5" ry="2.5" style="stroke:#181818;stroke-width:0.5;" width="551.0547" x="849.57" y="591.09"/><ellipse cx="1045.8776" cy="607.09" fill="#ADD1B2" rx="11" ry="11" style="stroke:#181818;stroke-width:1;"/><path d="M1048.8464,612.7306 Q1048.2682,613.0275 1047.6276,613.1681 Q1046.987,613.3244 1046.2839,613.3244 Q1043.7839,613.3244 1042.4557,611.6838 Q1041.1432,610.0275 1041.1432,606.9025 Q1041.1432,603.7775 1042.4557,602.1213 Q1043.7839,600.465 1046.2839,600.465 Q1046.987,600.465 1047.6276,600.6213 Q1048.2839,600.7775 1048.8464,601.0744 L1048.8464,603.7931 Q1048.2214,603.215 1047.6276,602.9494 Q1047.0339,602.6681 1046.4089,602.6681 Q1045.0651,602.6681 1044.3776,603.7463 Q1043.6901,604.8088 1043.6901,606.9025 Q1043.6901,608.9963 1044.3776,610.0744 Q1045.0651,611.1369 1046.4089,611.1369 Q1047.0339,611.1369 1047.6276,610.8713 Q1048.2214,610.59 1048.8464,610.0119 L1048.8464,612.7306 Z " fill="#000000"/><text fill="#000000" font-family="sans-serif" font-size="14" lengthAdjust="spacing" textLength="149.9395" x="1066.3776" y="611.9367">ComputadorAleatorio</text><line style="stroke:#181818;stroke-width:0.5;" x1="850.57" x2="1399.6247" y1="623.09" y2="623.09"/><line style="stroke:#181818;stroke-width:0.5;" x1="850.57" x2="1399.6247" y1="631.09" y2="631.09"/><ellipse cx="860.57" cy="644.7384" fill="#84BE84" rx="3" ry="3" style="stroke:#038048;stroke-width:1;"/><text fill="#000000" font-family="sans-serif" font-size="14" lengthAdjust="spacing" textLength="525.0547" x="869.57" y="648.0851">escolher_jogada(jogadas_possiveis: List[Tuple[Peca, str]]): Tuple[Peca, str]</text></g><!--class ComputadorInteligente--><g id="elem_ComputadorInteligente"><rect codeLine="49" fill="#F1F1F1" height="64.2969" id="ComputadorInteligente" rx="2.5" ry="2.5" style="stroke:#181818;stroke-width:0.5;" width="551.0547" x="1435.57" y="591.09"/><ellipse cx="1625.6603" cy="607.09" fill="#ADD1B2" rx="11" ry="11" style="stroke:#181818;stroke-width:1;"/><path d="M1628.6291,612.7306 Q1628.051,613.0275 1627.4103,613.1681 Q1626.7697,613.3244 1626.0666,613.3244 Q1623.5666,613.3244 1622.2385,611.6838 Q1620.926,610.0275 1620.926,606.9025 Q1620.926,603.7775 1622.2385,602.1213 Q1623.5666,600.465 1626.0666,600.465 Q1626.7697,600.465 1627.4103,600.6213 Q1628.0666,600.7775 1628.6291,601.0744 L1628.6291,603.7931 Q1628.0041,603.215 1627.4103,602.9494 Q1626.8166,602.6681 1626.1916,602.6681 Q1624.8478,602.6681 1624.1603,603.7463 Q1623.4728,604.8088 1623.4728,606.9025 Q1623.4728,608.9963 1624.1603,610.0744 Q1624.8478,611.1369 1626.1916,611.1369 Q1626.8166,611.1369 1627.4103,610.8713 Q1628.0041,610.59 1628.6291,610.0119 L1628.6291,612.7306 Z " fill="#000000"/><text fill="#000000" font-family="sans-serif" font-size="14" lengthAdjust="spacing" textLength="162.374" x="1646.1603" y="611.9367">ComputadorInteligente</text><line style="stroke:#181818;stroke-width:0.5;" x1="1436.57" x2="1985.6247" y1="623.09" y2="623.09"/><line style="stroke:#181818;stroke-width:0.5;" x1="1436.57" x2="1985.6247" y1="631.09" y2="631.09"/><ellipse cx="1446.57" cy="644.7384" fill="#84BE84" rx="3" ry="3" style="stroke:#038048;stroke-width:1;"/><text fill="#000000" font-family="sans-serif" font-size="14" lengthAdjust="spacing" textLength="525.0547" x="1455.57" y="648.0851">escolher_jogada(jogadas_possiveis: List[Tuple[Peca, str]]): Tuple[Peca, str]</text></g><!--class Placar--><g id="elem_Placar"><rect codeLine="53" fill="#F1F1F1" height="113.1875" id="Placar" rx="2.5" ry="2.5" style="stroke:#181818;stroke-width:0.5;" width="316.2266" x="704.99" y="47.75"/><ellipse cx="837.3816" cy="63.75" fill="#ADD1B2" rx="11" ry="11" style="stroke:#181818;stroke-width:1;"/><path d="M840.3504,69.3906 Q839.7722,69.6875 839.1316,69.8281 Q838.491,69.9844 837.7879,69.9844 Q835.2879,69.9844 833.9597,68.3438 Q832.6472,66.6875 832.6472,63.5625 Q832.6472,60.4375 833.9597,58.7813 Q835.2879,57.125 837.7879,57.125 Q838.491,57.125 839.1316,57.2813 Q839.7879,57.4375 840.3504,57.7344 L840.3504,60.4531 Q839.7254,59.875 839.1316,59.6094 Q838.5379,59.3281 837.9129,59.3281 Q836.5691,59.3281 835.8816,60.4063 Q835.1941,61.4688 835.1941,63.5625 Q835.1941,65.6563 835.8816,66.7344 Q836.5691,67.7969 837.9129,67.7969 Q838.5379,67.7969 839.1316,67.5313 Q839.7254,67.25 840.3504,66.6719 L840.3504,69.3906 Z " fill="#000000"/><text fill="#000000" font-family="sans-serif" font-size="14" lengthAdjust="spacing" textLength="42.9434" x="857.8816" y="68.5967">Placar</text><line style="stroke:#181818;stroke-width:0.5;" x1="705.99" x2="1020.2166" y1="79.75" y2="79.75"/><rect fill="#FFFFFF" fill-opacity="0.00000" height="6" style="stroke:#C82930;stroke-width:1;" width="6" x="712.99" y="90.3984"/><text fill="#000000" font-family="sans-serif" font-size="14" lengthAdjust="spacing" textLength="180.9678" x="724.99" y="96.7451">__jogadores: List[Jogador]</text><line style="stroke:#181818;stroke-width:0.5;" x1="705.99" x2="1020.2166" y1="104.0469" y2="104.0469"/><ellipse cx="715.99" cy="117.6953" fill="#84BE84" rx="3" ry="3" style="stroke:#038048;stroke-width:1;"/><text fill="#000000" font-family="sans-serif" font-size="14" lengthAdjust="spacing" textLength="222.2021" x="724.99" y="121.042">obter_jogadores(): List[Jogador]</text><ellipse cx="715.99" cy="133.9922" fill="#84BE84" rx="3" ry="3" style="stroke:#038048;stroke-width:1;"/><text fill="#000000" font-family="sans-serif" font-size="14" lengthAdjust="spacing" textLength="290.2266" x="724.99" y="137.3389">adicionar_jogador(jogador: Jogador): void</text><ellipse cx="715.99" cy="150.2891" fill="#84BE84" rx="3" ry="3" style="stroke:#038048;stroke-width:1;"/><text fill="#000000" font-family="sans-serif" font-size="14" lengthAdjust="spacing" textLength="245.9912" x="724.99" y="153.6357">obter_pontos(jogador: Jogador): int</text></g><!--class Jogo--><g id="elem_Jogo"><rect codeLine="60" fill="#F1F1F1" height="194.6719" id="Jogo" rx="2.5" ry="2.5" style="stroke:#181818;stroke-width:0.5;" width="335.3125" x="229.44" y="7"/><ellipse cx="377.773" cy="23" fill="#ADD1B2" rx="11" ry="11" style="stroke:#181818;stroke-width:1;"/><path d="M380.7418,28.6406 Q380.1636,28.9375 379.523,29.0781 Q378.8824,29.2344 378.1793,29.2344 Q375.6793,29.2344 374.3511,27.5938 Q373.0386,25.9375 373.0386,22.8125 Q373.0386,19.6875 374.3511,18.0313 Q375.6793,16.375 378.1793,16.375 Q378.8824,16.375 379.523,16.5313 Q380.1793,16.6875 380.7418,16.9844 L380.7418,19.7031 Q380.1168,19.125 379.523,18.8594 Q378.9293,18.5781 378.3043,18.5781 Q376.9605,18.5781 376.273,19.6563 Q375.5855,20.7188 375.5855,22.8125 Q375.5855,24.9063 376.273,25.9844 Q376.9605,27.0469 378.3043,27.0469 Q378.9293,27.0469 379.523,26.7813 Q380.1168,26.5 380.7418,25.9219 L380.7418,28.6406 Z " fill="#000000"/><text fill="#000000" font-family="sans-serif" font-size="14" lengthAdjust="spacing" textLength="30.1465" x="398.273" y="27.8467">Jogo</text><line style="stroke:#181818;stroke-width:0.5;" x1="230.44" x2="563.7525" y1="39" y2="39"/><rect fill="#FFFFFF" fill-opacity="0.00000" height="6" style="stroke:#C82930;stroke-width:1;" width="6" x="237.44" y="49.6484"/><text fill="#000000" font-family="sans-serif" font-size="14" lengthAdjust="spacing" textLength="138.5713" x="249.44" y="55.9951">__jogador1: Jogador</text><rect fill="#FFFFFF" fill-opacity="0.00000" height="6" style="stroke:#C82930;stroke-width:1;" width="6" x="237.44" y="65.9453"/><text fill="#000000" font-family="sans-serif" font-size="14" lengthAdjust="spacing" textLength="138.5713" x="249.44" y="72.292">__jogador2: Jogador</text><rect fill="#FFFFFF" fill-opacity="0.00000" height="6" style="stroke:#C82930;stroke-width:1;" width="6" x="237.44" y="82.2422"/><text fill="#000000" font-family="sans-serif" font-size="14" lengthAdjust="spacing" textLength="155.3125" x="249.44" y="88.5889">__pontos: Dict[str, int]</text><line style="stroke:#181818;stroke-width:0.5;" x1="230.44" x2="563.7525" y1="95.8906" y2="95.8906"/><ellipse cx="240.44" cy="109.5391" fill="#84BE84" rx="3" ry="3" style="stroke:#038048;stroke-width:1;"/><text fill="#000000" font-family="sans-serif" font-size="14" lengthAdjust="spacing" textLength="179.8057" x="249.44" y="112.8857">obter_jogador1(): Jogador</text><ellipse cx="240.44" cy="125.8359" fill="#84BE84" rx="3" ry="3" style="stroke:#038048;stroke-width:1;"/><text fill="#000000" font-family="sans-serif" font-size="14" lengthAdjust="spacing" textLength="179.8057" x="249.44" y="129.1826">obter_jogador2(): Jogador</text><ellipse cx="240.44" cy="142.1328" fill="#84BE84" rx="3" ry="3" style="stroke:#038048;stroke-width:1;"/><text fill="#000000" font-family="sans-serif" font-size="14" lengthAdjust="spacing" textLength="196.5469" x="249.44" y="145.4795">obter_pontos(): Dict[str, int]</text><ellipse cx="240.44" cy="158.4297" fill="#84BE84" rx="3" ry="3" style="stroke:#038048;stroke-width:1;"/><text fill="#000000" font-family="sans-serif" font-size="14" lengthAdjust="spacing" textLength="288.8047" x="249.44" y="161.7764">distribuir_pecas(estoque: Conjunto): void</text><ellipse cx="240.44" cy="174.7266" fill="#84BE84" rx="3" ry="3" style="stroke:#038048;stroke-width:1;"/><text fill="#000000" font-family="sans-serif" font-size="14" lengthAdjust="spacing" textLength="242.2793" x="249.44" y="178.0732">jogar_rodada(): Tuple[Jogador, int]</text><ellipse cx="240.44" cy="191.0234" fill="#84BE84" rx="3" ry="3" style="stroke:#038048;stroke-width:1;"/><text fill="#000000" font-family="sans-serif" font-size="14" lengthAdjust="spacing" textLength="309.3125" x="249.44" y="194.3701">jogar_partida(): Tuple[Jogador, Dict[str, int]]</text></g><!--reverse link Jogador to Humano--><g id="link_Jogador_Humano"><path codeLine="73" d="M721.1574,484.4429 C666.0874,526.1229 619.8,561.16 580.68,590.77 " fill="#FFFFFF" fill-opacity="0.00000" id="Jogador-backto-Humano" style="stroke:#181818;stroke-width:1;"/><polygon fill="#FFFFFF" fill-opacity="0.00000" points="735.51,473.58,717.5364,479.6587,724.7783,489.2271,735.51,473.58" style="stroke:#181818;stroke-width:1;"/></g><!--reverse link Jogador to ComputadorAleatorio--><g id="link_Jogador_ComputadorAleatorio"><path codeLine="74" d="M979.4129,485.879 C1023.9529,527.559 1059.84,561.16 1091.48,590.77 " fill="#FFFFFF" fill-opacity="0.00000" id="Jogador-backto-ComputadorAleatorio" style="stroke:#181818;stroke-width:1;"/><polygon fill="#FFFFFF" fill-opacity="0.00000" points="966.27,473.58,975.3132,490.2599,983.5125,481.498,966.27,473.58" style="stroke:#181818;stroke-width:1;"/></g><!--reverse link Jogador to ComputadorInteligente--><g id="link_Jogador_ComputadorInteligente"><path codeLine="75" d="M1156.3014,461.8006 C1313.9114,507.3806 1485.45,556.99 1601.85,590.65 " fill="#FFFFFF" fill-opacity="0.00000" id="Jogador-backto-ComputadorInteligente" style="stroke:#181818;stroke-width:1;"/><polygon fill="#FFFFFF" fill-opacity="0.00000" points="1139.01,456.8,1154.6346,467.5644,1157.9683,456.0368,1139.01,456.8" style="stroke:#181818;stroke-width:1;"/></g><!--reverse link Jogo to Jogador--><g id="link_Jogo_Jogador"><path codeLine="77" d="M574.7367,208.1398 C617.5467,232.9098 653.2,253.54 696,278.31 " fill="#FFFFFF" fill-opacity="0.00000" id="Jogo-backto-Jogador" style="stroke:#181818;stroke-width:1;"/><polygon fill="#181818" points="564.35,202.13,567.5401,208.5971,574.7367,208.1398,571.5466,201.6727,564.35,202.13" style="stroke:#181818;stroke-width:1;"/><text fill="#000000" font-family="sans-serif" font-size="13" lengthAdjust="spacing" textLength="25.7588" x="645.1" y="244.7469">tem</text><text fill="#000000" font-family="sans-serif" font-size="13" lengthAdjust="spacing" textLength="8.271" x="567.8383" y="221.6051">1</text><text fill="#000000" font-family="sans-serif" font-size="13" lengthAdjust="spacing" textLength="8.271" x="675.445" y="267.6557">2</text></g><!--link Jogo to Conjunto--><g id="link_Jogo_Conjunto"><path codeLine="78" d="M293.22,201.94 C250.97,241.23 208.0239,281.1642 171.6639,314.9742 " fill="#FFFFFF" fill-opacity="0.00000" id="Jogo-to-Conjunto" style="stroke:#181818;stroke-width:1;stroke-dasharray:7.0,7.0;"/><polygon fill="#181818" points="167.27,319.06,176.5847,315.8606,170.9316,315.6552,171.137,310.0021,167.27,319.06" style="stroke:#181818;stroke-width:1;"/><text fill="#000000" font-family="sans-serif" font-size="13" lengthAdjust="spacing" textLength="22.9785" x="262.1" y="244.7469">usa</text></g><!--link Jogo to Tabuleiro--><g id="link_Jogo_Tabuleiro"><path codeLine="79" d="M397.1,201.94 C397.1,226.72 397.1,247.39 397.1,272.18 " fill="#FFFFFF" fill-opacity="0.00000" id="Jogo-to-Tabuleiro" style="stroke:#181818;stroke-width:1;stroke-dasharray:7.0,7.0;"/><polygon fill="#181818" points="397.1,278.18,401.1,269.18,397.1,273.18,393.1,269.18,397.1,278.18" style="stroke:#181818;stroke-width:1;"/><text fill="#000000" font-family="sans-serif" font-size="13" lengthAdjust="spacing" textLength="22.9785" x="398.1" y="244.7469">usa</text></g><!--reverse link Jogador to Peca--><g id="link_Jogador_Peca"><path codeLine="81" d="M575.7246,471.7716 C569.9646,473.4416 575.77,471.75 570.1,473.35 C498.89,493.48 312.96,518.62 246.1,550.35 C240.25,553.12 234.42,556.3 228.69,559.75 " fill="#FFFFFF" fill-opacity="0.00000" id="Jogador-backto-Peca" style="stroke:#181818;stroke-width:1;"/><polygon fill="#FFFFFF" fill-opacity="0.00000" points="587.25,468.43,580.3735,466.259,575.7246,471.7716,582.6012,473.9426,587.25,468.43" style="stroke:#181818;stroke-width:1;"/><text fill="#000000" font-family="sans-serif" font-size="13" lengthAdjust="spacing" textLength="41.6025" x="423.1" y="516.4169">possui</text><text fill="#000000" font-family="sans-serif" font-size="13" lengthAdjust="spacing" textLength="8.271" x="570.9461" y="468.0198">1</text><text fill="#000000" font-family="sans-serif" font-size="13" lengthAdjust="spacing" textLength="6.5" x="236.3" y="550.0569">*</text></g><!--reverse link Tabuleiro to Peca--><g id="link_Tabuleiro_Peca"><path codeLine="82" d="M292.1397,482.0703 C266.6997,507.5403 248.17,526.08 224.25,550.02 " fill="#FFFFFF" fill-opacity="0.00000" id="Tabuleiro-backto-Peca" style="stroke:#181818;stroke-width:1;"/><polygon fill="#FFFFFF" fill-opacity="0.00000" points="300.62,473.58,293.5498,474.9984,292.1397,482.0703,299.21,480.6519,300.62,473.58" style="stroke:#181818;stroke-width:1;"/><text fill="#000000" font-family="sans-serif" font-size="13" lengthAdjust="spacing" textLength="49.0991" x="269.1" y="516.4169">cont&#233;m</text><text fill="#000000" font-family="sans-serif" font-size="13" lengthAdjust="spacing" textLength="8.271" x="285.2507" y="493.3674">1</text><text fill="#000000" font-family="sans-serif" font-size="13" lengthAdjust="spacing" textLength="6.5" x="224.8649" y="539.3995">*</text></g><!--reverse link Conjunto to Peca--><g id="link_Conjunto_Peca"><path codeLine="83" d="M119.5357,444.7729 C125.9157,479.5429 132.02,512.79 138.88,550.22 " fill="#FFFFFF" fill-opacity="0.00000" id="Conjunto-backto-Peca" style="stroke:#181818;stroke-width:1;"/><polygon fill="#181818" points="117.37,432.97,114.5186,439.5934,119.5357,444.7729,122.3872,438.1496,117.37,432.97" style="stroke:#181818;stroke-width:1;"/><text fill="#000000" font-family="sans-serif" font-size="13" lengthAdjust="spacing" textLength="49.0991" x="134.1" y="516.4169">cont&#233;m</text><text fill="#000000" font-family="sans-serif" font-size="13" lengthAdjust="spacing" textLength="8.271" x="110.1106" y="452.4973">1</text><text fill="#000000" font-family="sans-serif" font-size="13" lengthAdjust="spacing" textLength="6.5" x="131.3082" y="539.3672">*</text></g><!--link Placar to Jogador--><g id="link_Placar_Jogador"><path codeLine="85" d="M863.1,161.22 C863.1,195 863.1,239 863.1,278.29 " fill="#FFFFFF" fill-opacity="0.00000" id="Placar-Jogador" style="stroke:#181818;stroke-width:1;"/><text fill="#000000" font-family="sans-serif" font-size="13" lengthAdjust="spacing" textLength="58.8301" x="864.1" y="244.7469">monitora</text><text fill="#000000" font-family="sans-serif" font-size="13" lengthAdjust="spacing" textLength="8.271" x="854.6286" y="181.1408">1</text><text fill="#000000" font-family="sans-serif" font-size="13" lengthAdjust="spacing" textLength="6.5" x="856.8982" y="267.6342">*</text></g><!--SRC=[lLNDRjGm4BxdAQozi6rtA-qU8rG9mG4GXmhrLbMHDx5QhvnCi9qLelI1U0vUZ9du9t6IXGkmXqqqytb-llacBXKtXjsAahFdZE5louhYn1NeNSvaOrFRVh1TCJXOeJrsVN76ip_hIHr5OQmk2ZBYI_QIPMLVsLjeZbrZOLHTYyMQd7sInjvJuGy-XAWFN7FrnFlG9v2LTvHGjzfP2P-KqWSZpoXSJ7x73vqIKYzahyINJepIaqjyjLhKK0Y3Fbr1Ic3mLb8BQM7EolJu4dEJ84kGsD6qH6J8M8xaVvFzmGE0YWmfABaxkwO_nzI6AKvju4HIHkVJuWTyuQLbZhcFy8WdzOYt1chXqC5ISrYOeci2VPEXE2-lP2cXcPUQraSSdSGVG5HHwC1PdaCNBqWLSlA48OxK2L-xXobQC4QUX0m2lEjQvKZUKA271mmujVde54AlRT1KFiXhGvC1d5OUzVxxC2UXaZ5vMVHY29EDAdxVrRm94hxwkvsDzhHkEqipVwC4jw3b_ylueR52oKU1Zt-SyrPnN9EHgezEvoA4yxfFnHn1KT8JsA1g3rtxPnuMALMkNtH0dPWbA7qIOireXdd5kuYVUlPpZykKitUojFV8o8OoBFRONmJZunF__fpVDtDn9ac5h6bvw6JulYqjp8YXVjSA3HNDFexK9quYEsJBjPMBqBISNWkls6U1Gg29rOBApiBdxlNtxTRlMsfRM8zpW96QiwmVtcgtOfU8MUrNySEQCojgvxw-lXckoPnrXW_suGPpZfYKOWB5l5ovspzdj1gTp8OZ2vWIn_JpHvt5VB6sEIRpsq8GZnYghw71-qlpNm00]--></g></svg>